<svg width="164" height="137" viewBox="0 0 164 137" fill="none" xmlns="http://www.w3.org/2000/svg">
<path d="M66.0625 52.8041L77.2645 41.602L49.477 13.8541C43.302 20.0291 43.302 30.0437 49.477 36.2583L66.0625 52.8041ZM92.9 45.6395C98.9562 48.45 107.467 46.4708 113.76 40.177C121.321 32.6166 122.785 21.7708 116.967 15.952C111.187 10.1729 100.342 11.5979 92.7416 19.1583C86.4479 25.452 84.4687 33.9625 87.2791 40.0187L48.6458 78.652L54.227 84.2333L81.5 57.0395L108.733 84.2729L114.315 78.6916L87.0812 51.4583L92.9 45.6395Z" fill="#257394"/>
<path d="M79 23.1292L77.4292 21.6992C71.85 16.64 68.1667 13.3033 68.1667 9.20833C68.1667 5.87167 70.7883 3.25 74.125 3.25C76.01 3.25 77.8192 4.1275 79 5.51417C80.1808 4.1275 81.99 3.25 83.875 3.25C87.2117 3.25 89.8333 5.87167 89.8333 9.20833C89.8333 13.3033 86.15 16.64 80.5708 21.71L79 23.1292Z" fill="#F78250"/>
<path d="M2.4112 125.181C2.4112 126.602 3.16 127.456 4.6576 127.744C4.9456 127.802 5.272 127.83 5.6368 127.83C8.0368 127.83 9.9376 127.053 11.3392 125.498C12.7408 123.962 13.4416 122.022 13.4416 119.68C13.4416 118.758 13.2688 117.914 12.9232 117.146C12.5968 116.358 12.184 115.715 11.6848 115.216C11.1856 114.698 10.6384 114.179 10.0432 113.661C9.4672 113.142 8.9296 112.672 8.4304 112.25C7.9312 111.827 7.5088 111.318 7.1632 110.723C6.8368 110.128 6.6736 109.494 6.6736 108.822C6.6736 107.056 7.4608 105.434 9.0352 103.955C10.6288 102.458 12.3376 101.709 14.1616 101.709C14.5264 101.709 14.7952 101.843 14.968 102.112C15.1408 102.381 15.2272 102.65 15.2272 102.918L15.1984 103.293C15.064 103.216 14.728 103.178 14.1904 103.178C12.9616 103.178 11.7712 103.754 10.6192 104.906C9.4672 106.058 8.8912 107.392 8.8912 108.909C8.8912 109.523 9.0544 110.128 9.3808 110.723C9.7264 111.299 10.1488 111.808 10.648 112.25C11.1472 112.691 11.6848 113.19 12.2608 113.747C12.8368 114.285 13.3744 114.822 13.8736 115.36C14.3728 115.878 14.7856 116.522 15.112 117.29C15.4576 118.038 15.6304 118.835 15.6304 119.68C15.6304 122.003 14.6704 124.067 12.7504 125.872C10.8304 127.677 8.4592 128.579 5.6368 128.579C3.256 128.579 1.7488 127.811 1.1152 126.275C0.616 125.008 0.808 123.606 1.6912 122.07C2.5744 120.534 3.8512 119.498 5.5216 118.96C6.136 118.768 6.6832 118.672 7.1632 118.672C7.6432 118.672 7.9696 118.758 8.1424 118.931C8.3344 119.085 8.4592 119.334 8.5168 119.68C6.712 119.68 5.1664 120.41 3.88 121.869C2.9008 122.963 2.4112 124.067 2.4112 125.181ZM15.7744 109.254C15.7744 109.35 15.6784 109.398 15.4864 109.398C15.3136 109.398 15.1504 109.36 14.9968 109.283C14.8432 109.206 14.7664 109.101 14.7664 108.966C14.7664 107.008 14.9872 105.434 15.4288 104.243C15.8704 103.053 16.456 102.458 17.1856 102.458C17.3776 102.458 17.5408 102.525 17.6752 102.659C17.8096 102.794 17.8768 102.966 17.8768 103.178C17.0128 104.042 16.3888 105.338 16.0048 107.066C15.8512 107.757 15.7744 108.486 15.7744 109.254ZM27.9432 120.486C27.9432 118.125 28.3752 115.139 29.2392 111.53C29.2968 111.338 29.2392 111.251 29.0664 111.27C28.932 111.29 28.8072 111.347 28.692 111.443C27.8472 112.154 26.916 113.469 25.8984 115.389C24.8808 117.309 24.0648 119.066 23.4504 120.659C22.836 122.234 22.5288 123.155 22.5288 123.424C22.5288 123.654 22.3848 123.77 22.0968 123.77C21.5208 123.77 21.2328 123.011 21.2328 121.494C21.2328 118.614 21.5208 116.022 22.0968 113.718C22.6728 111.395 23.3736 110.234 24.1992 110.234C24.564 110.234 24.7464 110.435 24.7464 110.838C23.8632 113.622 23.2296 116.483 22.8456 119.421H23.1048C25.6392 113.085 27.972 109.917 30.1032 109.917C31.0248 109.917 31.4856 110.368 31.4856 111.27C30.5832 113.958 29.9304 116.608 29.5272 119.219H29.7576C30.3912 117.875 31.0248 116.656 31.6584 115.562C32.3112 114.448 33.0696 113.421 33.9336 112.48C34.7976 111.52 35.5752 111.04 36.2664 111.04C37.188 111.04 37.6488 111.482 37.6488 112.365C36.6504 115.686 36.1512 118.922 36.1512 122.07C36.1512 124.106 36.4584 125.123 37.0728 125.123C37.284 125.123 37.4952 125.027 37.7064 124.835C37.9176 124.662 38.0616 124.576 38.1384 124.576C38.4072 124.576 38.3976 124.787 38.1096 125.21C38.0328 125.344 37.86 125.526 37.5912 125.757C37.3416 125.987 37.092 126.102 36.8424 126.102C36.0936 126.102 35.508 125.574 35.0856 124.518C34.6824 123.482 34.4808 122.128 34.4808 120.458C34.4808 117.52 34.788 114.938 35.4024 112.71C35.4408 112.576 35.3928 112.509 35.2584 112.509C35.1432 112.528 35.028 112.586 34.9128 112.682C33.8184 113.622 32.5992 115.37 31.2552 117.923C29.9112 120.458 29.2392 121.955 29.2392 122.416C29.2392 122.646 29.0856 122.762 28.7784 122.762C28.2216 122.762 27.9432 122.003 27.9432 120.486ZM44.9865 124C43.4121 124 42.6249 122.762 42.6249 120.285C42.6249 118.806 42.9897 117.184 43.7193 115.418C44.7369 112.941 46.0713 111.251 47.7225 110.349C48.4329 109.965 49.0953 109.773 49.7097 109.773C50.3241 109.773 50.8041 109.907 51.1497 110.176C51.5145 110.445 51.7449 110.714 51.8409 110.982L52.0137 111.357C51.9561 111.683 51.7929 111.846 51.5241 111.846C51.2169 111.846 51.0345 111.779 50.9769 111.645C50.9385 111.491 50.8905 111.366 50.8329 111.27C50.7753 111.155 50.6409 111.011 50.4297 110.838C50.2185 110.646 49.9785 110.55 49.7097 110.55C48.4617 110.55 47.3289 111.674 46.3113 113.92C45.1593 116.512 44.5833 118.95 44.5833 121.235C44.5833 122.387 44.8137 122.963 45.2745 122.963C45.6393 122.963 46.1481 122.56 46.8009 121.754C47.4729 120.928 48.1737 119.901 48.9033 118.672C50.1705 116.56 51.1977 114.726 51.9849 113.171C52.6377 111.789 53.3097 111.098 54.0009 111.098C54.3657 111.098 54.5481 111.318 54.5481 111.76C54.3753 112.125 54.1545 112.643 53.8857 113.315C53.6169 113.987 53.2617 115.322 52.8201 117.318C52.3785 119.315 52.1577 121.302 52.1577 123.28C52.1577 125.258 52.4553 126.246 53.0505 126.246C53.2809 126.246 53.4921 126.141 53.6841 125.93C53.8761 125.738 54.0489 125.44 54.2025 125.037C54.2601 124.826 54.3945 124.72 54.6057 124.72C54.6825 124.72 54.7401 124.749 54.7785 124.806C54.8169 124.864 54.8169 124.96 54.7785 125.094C54.7401 125.229 54.6729 125.411 54.5769 125.642C54.4809 125.891 54.2697 126.218 53.9433 126.621C53.6361 127.024 53.3097 127.226 52.9641 127.226C52.1577 127.226 51.5337 126.698 51.0921 125.642C50.6697 124.586 50.4585 123.338 50.4585 121.898C50.4585 120.458 50.5641 119.075 50.7753 117.75H50.4873C48.0489 121.917 46.2153 124 44.9865 124ZM68.027 115.734C67.2974 115.734 66.9326 114.938 66.9326 113.344C66.9326 112.442 67.1054 111.597 67.451 110.81C66.1454 111.942 64.6862 114.054 63.0734 117.146C61.4606 120.218 60.6542 122.224 60.6542 123.165C60.6542 123.395 60.5006 123.51 60.1934 123.51C59.6366 123.51 59.3582 122.752 59.3582 121.235C59.3582 118.374 59.6462 115.782 60.2222 113.459C60.7982 111.136 61.499 109.974 62.3246 109.974C62.6894 109.974 62.8718 110.186 62.8718 110.608C61.9886 113.411 61.355 116.282 60.971 119.219H61.1726C62.7278 115.629 64.4462 112.826 66.3278 110.81C67.403 109.658 68.3822 109.082 69.2654 109.082C69.4574 109.082 69.611 109.139 69.7262 109.254C69.8606 109.37 69.9278 109.514 69.9278 109.686C69.7934 109.821 69.6302 110.022 69.4382 110.291C69.2462 110.56 68.987 111.203 68.6606 112.221C68.3342 113.219 68.171 114.314 68.171 115.504C68.171 115.658 68.123 115.734 68.027 115.734ZM74.1269 111.53C73.3781 111.53 73.0037 111.222 73.0037 110.608C73.0037 110.378 73.0997 110.234 73.2917 110.176C73.3109 110.157 73.3397 110.147 73.3781 110.147C73.4933 110.282 73.7045 110.349 74.0117 110.349C74.3381 110.349 74.8469 110.33 75.5381 110.291C76.4405 107.853 77.3045 106.634 78.1301 106.634C78.4565 106.634 78.6197 106.816 78.6197 107.181C78.3125 107.949 77.9669 108.938 77.5829 110.147C79.4837 109.936 80.7221 109.83 81.2981 109.83C81.4517 109.83 81.5285 109.907 81.5285 110.061C81.5285 110.368 81.3269 110.522 80.9237 110.522C80.7125 110.522 79.4933 110.723 77.2661 111.126C75.7493 115.926 74.9909 119.814 74.9909 122.79C74.9909 125.766 75.5861 127.254 76.7765 127.254C77.2565 127.254 77.7077 127.043 78.1301 126.621C78.5525 126.218 78.8501 125.814 79.0229 125.411C79.0997 125.2 79.2629 125.142 79.5125 125.238C79.6277 125.277 79.6661 125.334 79.6277 125.411C79.5125 125.661 79.3685 125.949 79.1957 126.275C79.0229 126.602 78.6869 127.005 78.1877 127.485C77.6885 127.965 77.1797 128.205 76.6613 128.205C74.3765 128.205 73.2341 126.218 73.2341 122.243C73.2341 118.883 73.8581 115.293 75.1061 111.472C74.8373 111.51 74.5109 111.53 74.1269 111.53ZM116.28 123.338C116.28 125.949 116.875 127.254 118.065 127.254C118.833 127.254 119.477 126.688 119.995 125.555C120.11 125.363 120.283 125.306 120.513 125.382C120.609 125.421 120.629 125.498 120.571 125.613C120.533 125.747 120.465 125.901 120.369 126.074C120.273 126.266 120.101 126.554 119.851 126.938C119.275 127.782 118.613 128.205 117.864 128.205C115.541 128.205 114.379 126.362 114.379 122.675C114.379 118.528 115.848 112.048 118.785 103.235C118.862 103.005 118.814 102.89 118.641 102.89C118.488 102.89 118.315 102.976 118.123 103.149C117.105 104.109 116.059 105.395 114.984 107.008C113.928 108.621 112.997 110.253 112.19 111.904C110.769 114.765 109.723 117.146 109.051 119.046C108.149 121.715 107.352 123.05 106.661 123.05C106.257 123.05 106.056 122.848 106.056 122.445C106.056 122.426 106.065 122.406 106.085 122.387C108.485 113.69 109.685 108.227 109.685 106C109.685 105.002 109.464 104.502 109.022 104.502C108.139 104.502 106.747 106.154 104.846 109.456C102.945 112.739 101.515 116.032 100.555 119.334C99.4029 123.309 98.3853 125.296 97.5021 125.296C97.0989 125.296 96.8973 125.085 96.8973 124.662C96.9165 124.605 96.9741 124.442 97.0701 124.173C97.1661 123.904 97.2909 123.51 97.4445 122.992C97.5981 122.454 97.8381 121.619 98.1645 120.486C98.5101 119.334 98.7981 118.221 99.0285 117.146C99.7965 113.574 100.181 111.002 100.181 109.427C100.181 108.582 100.123 107.747 100.008 106.922C99.8925 106.077 99.6045 105.395 99.1437 104.877C98.6829 104.358 98.0781 104.099 97.3293 104.099C96.1581 104.099 95.3325 104.589 94.8525 105.568C94.6989 105.914 94.6221 106.211 94.6221 106.461C94.6221 106.691 94.6893 106.806 94.8237 106.806C94.7661 107.075 94.5357 107.21 94.1325 107.21C93.7293 107.21 93.5277 106.95 93.5277 106.432C93.5277 105.645 93.9213 104.944 94.7085 104.33C95.5149 103.715 96.4269 103.408 97.4445 103.408C98.4621 103.408 99.2685 103.667 99.8637 104.186C100.478 104.685 100.92 105.357 101.189 106.202C101.63 107.603 101.851 109.12 101.851 110.752C101.851 111.366 101.813 112 101.736 112.653H102.024C105.077 106.47 107.64 103.379 109.713 103.379C110.904 103.379 111.499 104.397 111.499 106.432C111.499 107.411 111.278 109.13 110.837 111.587H111.096C114.609 104.963 117.489 101.651 119.736 101.651C120.6 101.651 121.032 102.131 121.032 103.091C120.437 104.57 119.774 106.586 119.045 109.139C117.201 115.456 116.28 120.189 116.28 123.338ZM131.443 110.032C132.903 110.032 133.632 110.886 133.632 112.595C133.632 113.574 133.306 114.602 132.653 115.677C131.539 117.462 130.061 118.355 128.218 118.355C127.93 118.355 127.69 118.307 127.498 118.211C127.306 118.115 127.162 117.971 127.066 117.779C128.429 117.779 129.677 116.992 130.81 115.418C131.731 114.15 132.192 112.989 132.192 111.933C132.192 111.146 131.875 110.752 131.242 110.752C129.975 110.752 128.794 111.741 127.699 113.718C126.528 115.869 125.943 118.077 125.943 120.342C125.943 122.262 126.49 123.414 127.584 123.798C127.795 123.875 128.064 123.914 128.391 123.914C128.717 123.914 129.063 123.837 129.427 123.683C129.792 123.51 130.099 123.309 130.349 123.078C130.848 122.618 131.261 122.109 131.587 121.552C131.664 121.398 131.808 121.322 132.019 121.322C132.365 121.322 132.528 121.379 132.509 121.494C132.451 121.706 132.231 122.061 131.847 122.56C131.482 123.059 131.136 123.462 130.81 123.77C130.503 124.058 130.09 124.317 129.571 124.547C129.072 124.797 128.563 124.922 128.045 124.922C126.01 124.922 124.714 123.962 124.157 122.042C123.984 121.389 123.898 120.717 123.898 120.026C123.898 118.739 124.195 117.338 124.791 115.821C125.731 113.517 127.027 111.856 128.679 110.838C129.581 110.301 130.503 110.032 131.443 110.032ZM140.052 124C138.477 124 137.69 122.762 137.69 120.285C137.69 118.806 138.055 117.184 138.785 115.418C139.802 112.941 141.137 111.251 142.788 110.349C143.498 109.965 144.161 109.773 144.775 109.773C145.389 109.773 145.869 109.907 146.215 110.176C146.58 110.445 146.81 110.714 146.906 110.982L147.079 111.357C147.021 111.683 146.858 111.846 146.589 111.846C146.282 111.846 146.1 111.779 146.042 111.645C146.004 111.491 145.956 111.366 145.898 111.27C145.841 111.155 145.706 111.011 145.495 110.838C145.284 110.646 145.044 110.55 144.775 110.55C143.527 110.55 142.394 111.674 141.377 113.92C140.225 116.512 139.649 118.95 139.649 121.235C139.649 122.387 139.879 122.963 140.34 122.963C140.705 122.963 141.213 122.56 141.866 121.754C142.538 120.928 143.239 119.901 143.969 118.672C145.236 116.56 146.263 114.726 147.05 113.171C147.703 111.789 148.375 111.098 149.066 111.098C149.431 111.098 149.613 111.318 149.613 111.76C149.441 112.125 149.22 112.643 148.951 113.315C148.682 113.987 148.327 115.322 147.885 117.318C147.444 119.315 147.223 121.302 147.223 123.28C147.223 125.258 147.521 126.246 148.116 126.246C148.346 126.246 148.557 126.141 148.749 125.93C148.941 125.738 149.114 125.44 149.268 125.037C149.325 124.826 149.46 124.72 149.671 124.72C149.748 124.72 149.805 124.749 149.844 124.806C149.882 124.864 149.882 124.96 149.844 125.094C149.805 125.229 149.738 125.411 149.642 125.642C149.546 125.891 149.335 126.218 149.009 126.621C148.701 127.024 148.375 127.226 148.029 127.226C147.223 127.226 146.599 126.698 146.157 125.642C145.735 124.586 145.524 123.338 145.524 121.898C145.524 120.458 145.629 119.075 145.841 117.75H145.553C143.114 121.917 141.281 124 140.052 124ZM158.167 128.205C157.054 128.205 156.228 127.619 155.691 126.448C155.172 125.277 154.913 123.52 154.913 121.178C154.913 118.835 155.259 116.061 155.95 112.854C156.641 109.648 157.447 106.989 158.369 104.877C159.31 102.765 160.126 101.709 160.817 101.709C161.143 101.709 161.307 101.901 161.307 102.285C160.903 103.206 160.395 104.598 159.78 106.461C159.166 108.304 158.647 110.013 158.225 111.587C157.822 113.162 157.447 115.005 157.102 117.117C156.775 119.229 156.612 121.043 156.612 122.56C156.612 124.058 156.756 125.21 157.044 126.016C157.351 126.842 157.764 127.254 158.283 127.254C158.724 127.254 159.147 127.043 159.55 126.621C159.953 126.218 160.241 125.814 160.414 125.411C160.51 125.2 160.683 125.142 160.932 125.238C161.028 125.277 161.047 125.354 160.99 125.469C160.951 125.603 160.875 125.766 160.759 125.958C160.663 126.15 160.481 126.448 160.212 126.851C159.636 127.754 158.955 128.205 158.167 128.205Z" fill="#F78250"/>
</svg>
