<?xml version="1.0" encoding="utf-8"?>
<!-- Generator: Adobe Illustrator 26.2.0, SVG Export Plug-In . SVG Version: 6.00 Build 0)  -->
<svg version="1.1" xmlns="http://www.w3.org/2000/svg" xmlns:xlink="http://www.w3.org/1999/xlink" x="0px" y="0px"
	 viewBox="0 0 463.4 408.7" style="enable-background:new 0 0 463.4 408.7;" xml:space="preserve">
<style type="text/css">
	.st0{display:none;}
	.st1{display:inline;}
	.st2{fill:#F6DDB4;}
	.st3{fill:#CDD2CB;}
	.st4{fill:#FFFFFF;}
	.st5{fill:#4D6BC1;}
	.st6{fill:#FCA6A6;}
	.st7{fill:#F3CD4C;}
	.st8{fill:#E05954;}
	.st9{fill:#FEA7A6;}
	.st10{fill:#C16F6F;}
	.st11{fill:#1D346D;}
	.st12{fill:#4A283E;}
	.st13{fill:#E25855;}
	.st14{fill:#824052;}
	.st15{fill:#4C2C40;}
	.st16{fill:#E25956;}
	.st17{fill:#7A8E4C;}
	.st18{fill:#513B3E;}
	.st19{fill:#798D4D;}
	.st20{fill:#F5CE4E;}
	.st21{fill:#E15855;}
	.st22{fill:#CED3CC;}
	.st23{fill:#FFFBF5;}
</style>
<g id="Layer_1" class="st0">
	<g id="NancMQ.tif" class="st1">
		
			<image style="overflow:visible;" width="724" height="658" id="Layer_0_00000001662290605938834810000007471721236756360600_" xlink:href="95CDA4D1CB7C1077.png"  transform="matrix(0.6824 0 0 0.6824 58.9818 172)">
		</image>
	</g>
</g>
<g id="Layer_18">
	<g>
		<g>
			<polygon class="st2" points="151.3,372.5 349.8,372.5 349.8,388.1 227,388.1 227,392.5 352.6,392.5 455,324.4 455,319.6 
				353.5,386.4 353.5,369.5 455,305.4 124.6,305.4 			"/>
		</g>
		<g>
			<path class="st3" d="M242.1,226.3H358c5.1,0,9.1,4.6,8.4,9.6L355.2,314v6.9l-44.5,26.5l-140.3-3l54.2-30.1l9.2-80.6
				C234.2,229.5,237.8,226.3,242.1,226.3z"/>
		</g>
		<g>
			<polyline class="st4" points="241.5,233.7 359.9,233.7 348.3,313.1 231.3,312.1 241.5,233.7 			"/>
		</g>
		<g>
			<polygon class="st4" points="347,318.9 308.2,342.4 193.5,340.1 231.3,317.7 			"/>
		</g>
		<g>
			<polygon class="st3" points="333.1,322.4 308.6,337.1 207.2,336.4 233.6,321.6 			"/>
		</g>
		<g>
			<path class="st5" d="M349.6,283.5l-48.7-1.2l9.5-45l45.4,0L349.6,283.5z M304.6,279.4l42.4,1l5.4-40.1l-39.5,0L304.6,279.4z"/>
		</g>
		<g>
			<path class="st3" d="M298.8,246.8h-41.7c-0.8,0-1.5-0.7-1.5-1.5s0.7-1.5,1.5-1.5h41.7c0.8,0,1.5,0.7,1.5,1.5
				S299.6,246.8,298.8,246.8z"/>
		</g>
		<g>
			<path class="st3" d="M297.6,256.2h-41.7c-0.8,0-1.5-0.7-1.5-1.5s0.7-1.5,1.5-1.5h41.7c0.8,0,1.5,0.7,1.5,1.5
				S298.4,256.2,297.6,256.2z"/>
		</g>
		<g>
			<polygon class="st6" points="278.5,267.8 275.7,282 289.8,282 292.7,267.8 			"/>
		</g>
		<g>
			<path class="st3" d="M326.5,293.7h-39c-0.8,0-1.5-0.7-1.5-1.5s0.7-1.5,1.5-1.5h39c0.8,0,1.5,0.7,1.5,1.5S327.3,293.7,326.5,293.7
				z"/>
		</g>
		<g>
			<path class="st3" d="M325.3,299.6h-38.4c-0.8,0-1.5-0.7-1.5-1.5s0.7-1.5,1.5-1.5h38.4c0.8,0,1.5,0.7,1.5,1.5
				S326.1,299.6,325.3,299.6z"/>
		</g>
		<g>
			<polygon class="st7" points="259.5,282.6 257.1,294.4 271.7,294.4 274.3,282.6 			"/>
		</g>
		<g>
			<path class="st5" d="M338.4,274.9c-0.7,0-1.3-0.4-1.4-1.1l-6.7-24l-14,23.5c-0.4,0.7-1.3,0.9-2.1,0.5c-0.7-0.4-0.9-1.3-0.5-2.1
				l17.6-29.5l8.6,30.7c0.2,0.8-0.2,1.6-1,1.8C338.7,274.9,338.5,274.9,338.4,274.9z"/>
		</g>
		<g>
			<path class="st5" d="M338.7,267.3C338.7,267.3,338.6,267.3,338.7,267.3l-22.8-0.9c-0.8,0-1.5-0.7-1.4-1.6c0-0.8,0.7-1.5,1.6-1.4
				l22.7,0.9c0.8,0,1.5,0.7,1.4,1.6C340.1,266.7,339.5,267.3,338.7,267.3z"/>
		</g>
		<g>
			<polygon class="st8" points="171.3,233.7 155.9,312.2 241.9,315.9 255.6,233.7 			"/>
		</g>
		<g>
			<polygon class="st2" points="175,238.8 160.9,308.6 237.3,312.1 250.7,238.8 			"/>
		</g>
		<g>
			<path class="st8" d="M205.8,249.8h-16.1c-0.8,0-1.5-0.7-1.5-1.5s0.7-1.5,1.5-1.5h16.1c0.8,0,1.5,0.7,1.5,1.5
				S206.6,249.8,205.8,249.8z"/>
		</g>
		<g>
			<path class="st8" d="M211.5,259.4h-26.1c-0.8,0-1.5-0.7-1.5-1.5s0.7-1.5,1.5-1.5h26.1c0.8,0,1.5,0.7,1.5,1.5
				S212.3,259.4,211.5,259.4z"/>
		</g>
		<g>
			<path class="st8" d="M219.4,268h-37.2c-0.8,0-1.5-0.7-1.5-1.5s0.7-1.5,1.5-1.5h37.2c0.8,0,1.5,0.7,1.5,1.5S220.2,268,219.4,268z"
				/>
		</g>
		<g>
			<path class="st8" d="M228.9,249.8h-15.4c-0.8,0-1.5-0.7-1.5-1.5s0.7-1.5,1.5-1.5h15.4c0.8,0,1.5,0.7,1.5,1.5
				S229.8,249.8,228.9,249.8z"/>
		</g>
		<g>
			<path class="st9" d="M159.2,260.2c0,0,7.5-0.4,8.1-8.6c0,0,2.6-1.7,4.8,0c2.2,1.7,2,12.4-3.1,16.1
				C163.8,271.5,159.2,260.2,159.2,260.2z"/>
		</g>
		<g>
			<path class="st9" d="M216.5,299.5c0,0,3.5-5.4,3.1-11.7s5.1-10,8.7-18.4c3.5-8.5,6.3-13,9.1-11c2.8,2-1.1,12.6-1.6,15.9
				c-0.5,3.3,1.6,11.2,6.7,2.8s8.8-14.7,8.8-19.2c0-4.5,3.9-3,5.1-2.7c1.2,0.3,4.5,9.8-2.3,23.8c0,0,6.6,7.7-5.6,19.9
				c0,0-7,7.5-7.5,10.1C240.6,311.5,216.5,299.5,216.5,299.5z"/>
		</g>
		<g>
			<g>
				<path class="st10" d="M251.5,285.4l-0.4,0.3c0.1-0.2,8.4-21.2,5.9-28.7c-0.4-1.1-0.9-1.7-1.6-1.9c-1.1-0.3-2.5,0.8-3.1,1.3
					c-1,11.2-11.5,23.4-12,23.9l-0.7,0.1c0.1-0.1,10.8-13.3,11.7-24.3l0-0.2l0.1-0.1c0.1-0.1,2.2-2.1,4.2-1.7c1,0.2,1.7,1.1,2.3,2.5
					C261.2,264.9,251.8,284.5,251.5,285.4z"/>
			</g>
		</g>
		<g>
			<g>
				<path class="st10" d="M248.5,298.8l0.3-0.6c0.4-0.3,10.4-8.2,4.9-19l0.9-0.5C260.3,290.2,248.6,298.7,248.5,298.8z"/>
			</g>
		</g>
		<g>
			<path class="st5" d="M239.9,321.8l3,1.8c0,0-14.1,50.4-35.9,55c-21.8,4.7-40.1-20.6-40.1-20.6l5.5,33.1H76.6L52.9,289.4
				l93.5-26.2l13.6-2.2c0,0,5.5-0.2,14.3,11.6s26,44.8,26,44.8l5.9-11.9l2.3,0.7l7.4-12.1l29,13.1L239.9,321.8z"/>
		</g>
		<g>
			<polygon class="st4" points="245,307.2 239.9,321.8 208.5,306.3 215.9,294.1 			"/>
		</g>
		<g>
			<g>
				<path class="st11" d="M166,356.3c-0.4,0-0.7-0.2-0.9-0.5l-23.5-43.4c-0.3-0.5-0.1-1.1,0.4-1.4c0.5-0.3,1.1-0.1,1.4,0.4
					l23.5,43.4c0.3,0.5,0.1,1.1-0.4,1.4C166.4,356.3,166.2,356.3,166,356.3z"/>
			</g>
		</g>
		<g>
			<g>
				<path class="st11" d="M213.6,341.1c-0.3,0-0.7-0.2-0.8-0.5l-12.3-21.9c-0.3-0.4-0.1-1,0.4-1.2c0.5-0.2,1-0.1,1.3,0.4l12.3,21.9
					c0.3,0.4,0.1,1-0.4,1.2C213.9,341.1,213.7,341.1,213.6,341.1z"/>
			</g>
		</g>
		<g>
			<path class="st12" d="M77.4,187.2c-4.9,6.9-6.3,16.5-5.1,24.7c1.9,12.3,12,29.5-0.4,39.6c-1.7,1.4-3.5,2.5-5.5,3.4
				c-16.9,8-18.4,23.7-9.2,26.4L44,298.8l91.9,7.5c0,0,13.2-3,9.7-17.7c-3.5-14.7-5.6-29.6,20.4-24.8c0,0-7.8-7.7-14.3-9.8
				s-10.8-9.9-10.8-9.9s-2.1-61.5-2.1-61.5c0-0.8-5.7-2.8-6.3-3c-5-2.1-10.3-3.8-15.7-4.7C103.1,172.3,86.1,175.1,77.4,187.2z"/>
		</g>
		<g>
			<path class="st13" d="M43.2,287.8h72.3c9.7,0,18.3,6.4,21.1,15.7l25.6,84.7h38.5v4.4H45.2l-23.1-76.3
				C17.8,302,28.4,287.8,43.2,287.8z"/>
		</g>
		<g>
			<path class="st9" d="M138.7,185.5c0,0-5.2,18.8-11.6,23.8c0,0-11.7-7.8-16.5,2.2c-4.8,9.9,6.7,14.9,8,15
				c1.3,0.1,11.4,0.7,14.5,5.6c3.1,4.9,5.8,10.5,7.2,11.7c1.4,1.2,13.9-3.4,11.8-15.5c0,0-2.4-6.7-1.5-8.5s7.7-4.1,4.4-6.5
				c-3.3-2.4-11.8-3.8-11.7-11.1C143.5,194.8,142.6,188,138.7,185.5z"/>
		</g>
		<g>
			<path class="st12" d="M134,193.2c0,0,6.4-0.3,7.7,5.1c0,0-7.2-1.5-9.5,0S134,193.2,134,193.2z"/>
		</g>
		<g>
			<ellipse class="st12" cx="138.9" cy="207.7" rx="1.8" ry="2.9"/>
		</g>
		<g>
			<path class="st13" d="M122,222.2c-0.1,0-0.1,0-0.2,0l-0.9-0.2c-2.9-0.6-5.3-2.5-6.4-5.3l-0.7-1.7c-0.2-0.5,0-1.1,0.6-1.3
				c0.5-0.2,1.1,0,1.3,0.6l0.7,1.7c0.8,2.1,2.7,3.6,4.9,4.1l0.9,0.2c0.5,0.1,0.9,0.6,0.8,1.2C122.9,221.9,122.5,222.2,122,222.2z"/>
		</g>
		<g>
			<circle class="st4" cx="122" cy="227.3" r="3.7"/>
		</g>
		<g>
			<path class="st13" d="M149,228.9c-5.4,0-6.8-3.4-6.9-3.5c-0.2-0.5,0-1.1,0.6-1.3c0.5-0.2,1.1,0,1.3,0.5c0.1,0.2,1.5,3.1,7.4,2.1
				c0.5-0.1,1.1,0.3,1.2,0.8c0.1,0.5-0.3,1.1-0.8,1.2C150.7,228.8,149.8,228.9,149,228.9z"/>
		</g>
		<g>
			<polygon class="st14" points="399,282.6 398.4,286.9 397.2,295.6 396.9,298.1 396.5,300.6 393.8,320 393.1,325 391.8,334.6 
				360,334.6 358.9,325 358.3,320 356.1,300.6 355.6,295.6 354.6,286.9 354.1,282.6 			"/>
		</g>
		<g>
			<polygon class="st15" points="399,282.6 398.4,286.9 354.6,286.9 354.1,282.6 			"/>
		</g>
		<g>
			<g>
				<polygon class="st16" points="397.2,295.6 396.9,298.1 396.5,300.6 356.1,300.6 355.6,295.6 				"/>
			</g>
		</g>
		<g>
			<g>
				<polygon class="st16" points="393.8,320 393.1,325 358.9,325 358.3,320 				"/>
			</g>
		</g>
		<g>
			<path class="st17" d="M373.7,112c0,0-8.1,41.6-7.2,55.8s15.8,60.7,15.8,60.7s20.2-36.7,16.3-54.6
				C394.6,156.1,379,111.4,373.7,112z"/>
		</g>
		<g>
			<path class="st17" d="M385.5,273.6c0,0-2-42,16.9-52.8c18.9-10.8,47.1-12.2,47.1-12.2l-44.8,45.6l18.9-2.2
				C423.6,252,411.6,271.4,385.5,273.6z"/>
		</g>
		<g>
			<path class="st17" d="M327.8,189.9c0,0-3.5,44,7.3,55.8c10.8,11.8,29.3,26.5,29.3,26.5s12-18.1-1.6-36.5
				C349.2,217.4,327.8,189.9,327.8,189.9z"/>
		</g>
		<g>
			<path class="st15" d="M376.7,285.8C376.7,285.8,376.7,285.8,376.7,285.8c-0.6-0.1-1-0.5-1-1.1l8.7-96.5l-6.5-50.7
				c-0.1-0.5,0.3-1,0.9-1.1c0.5-0.1,1,0.3,1.1,0.9l6.5,50.9l-8.7,96.7C377.7,285.4,377.3,285.8,376.7,285.8z"/>
		</g>
		<g>
			<path class="st15" d="M382.7,286.5C382.7,286.5,382.6,286.5,382.7,286.5c-0.6,0-1-0.5-1-1.1c0-0.3,0.7-8,3.8-15.9
				c4.2-10.6,10.8-16.2,19.2-16.2c0.6,0,1,0.4,1,1s-0.4,1-1,1c-18.2,0-20.9,30-20.9,30.3C383.7,286.1,383.2,286.5,382.7,286.5z"/>
		</g>
		<g>
			<path class="st15" d="M371,286.5c-0.4,0-0.8-0.3-0.9-0.7l-11-30.5l-24.2-39.4c-0.3-0.5-0.1-1.1,0.3-1.4c0.5-0.3,1.1-0.1,1.4,0.3
				l24.3,39.7l11,30.6c0.2,0.5-0.1,1.1-0.6,1.3C371.2,286.4,371.1,286.5,371,286.5z"/>
		</g>
		<g>
			<path class="st15" d="M385.4,189.9c-0.3,0-0.5-0.1-0.7-0.3l-12.8-13.7c-0.4-0.4-0.4-1,0-1.4c0.4-0.4,1-0.4,1.4,0l12.8,13.7
				c0.4,0.4,0.4,1,0,1.4C385.9,189.8,385.7,189.9,385.4,189.9z"/>
		</g>
		<g>
			<path class="st18" d="M226.4,77.2l-14.6,67.4l-1.1,5.3h-75.2c-3,0-5.3-2.8-4.6-5.7l14.3-66.9H226.4z"/>
		</g>
		<g>
			<path class="st19" d="M226.4,77.2l-7.2,33.5l-7.3,33.9l-74.4,0.9c-1.6,0-2.8-1.4-2.4-3l9.8-44.8l4.5-20.5H226.4z"/>
		</g>
		<g>
			<path class="st20" d="M226.4,77.2l-7.2,33.5c-5.3,0.9-12.8,4-22.7,10.8c-5.2,3.5-11.7,6.2-18,4.3c-3.4-1.1-6.9-3.6-8.4-6.9
				c-1.2-2.6-0.4-5.8-0.4-8.5c0-2.2-0.2-4.5-0.7-6.6c-1.2-4.9-4.4-8.4-9.4-9.3c-5.5-1-10.6,0.8-14.7,3.3l4.5-20.5H226.4z"/>
		</g>
		<g>
			<circle class="st21" cx="199.5" cy="93.6" r="10.8"/>
		</g>
		<g>
			<path class="st13" d="M246.8,182.9c-9,0-16.4-7.3-16.4-16.4s7.3-16.4,16.4-16.4c9,0,16.4,7.3,16.4,16.4S255.8,182.9,246.8,182.9z
				 M246.8,154.2c-6.8,0-12.4,5.5-12.4,12.4s5.5,12.4,12.4,12.4s12.4-5.5,12.4-12.4S253.6,154.2,246.8,154.2z"/>
		</g>
		<g>
			<polygon class="st5" points="288.8,54.7 267,105.5 323.6,130 344.1,79.5 			"/>
		</g>
		<g>
			<polygon class="st22" points="284,108 287.5,164.1 349.8,159.8 345.4,104.5 			"/>
		</g>
		<g>
			<polygon class="st23" points="315.9,115.9 317.7,139.3 343.1,137.3 341.2,114.4 			"/>
		</g>
		<g>
			<path class="st5" d="M78.5,173.5c-0.7,0-1.4-0.4-1.8-1l-11.8-21.6c-0.5-1-0.2-2.2,0.8-2.7c1-0.5,2.2-0.2,2.7,0.8l11.8,21.6
				c0.5,1,0.2,2.2-0.8,2.7C79.1,173.5,78.8,173.5,78.5,173.5z"/>
		</g>
		<g>
			<path class="st5" d="M98,167.3c-1.1,0-2-0.9-2-2v-15.4c0-1.1,0.9-2,2-2s2,0.9,2,2v15.4C100,166.4,99.1,167.3,98,167.3z"/>
		</g>
		<g>
			<path class="st5" d="M66.7,187.5c-0.2,0-0.3,0-0.5-0.1L52.3,184c-1.1-0.3-1.7-1.4-1.5-2.4c0.3-1.1,1.4-1.7,2.4-1.5l13.9,3.5
				c1.1,0.3,1.7,1.4,1.5,2.4C68.4,186.9,67.5,187.5,66.7,187.5z"/>
		</g>
		<g>
			<path class="st19" d="M218.5,55.1c-9.9,0-18-8.1-18-18c0-8.1,5.5-15.3,13.3-17.4c1.1-0.3,2.2,0.3,2.4,1.4
				c0.3,1.1-0.3,2.2-1.4,2.4c-6.1,1.6-10.4,7.2-10.4,13.5c0,7.7,6.3,14,14,14s14-6.3,14-14c0-1.1,0.9-2,2-2s2,0.9,2,2
				C236.5,47.1,228.4,55.1,218.5,55.1z"/>
		</g>
		<g>
			<path class="st13" d="M267.5,172.9c-0.6,0-1.2-0.3-1.6-0.8L247,145.7c-0.6-0.9-0.4-2.1,0.5-2.8c0.9-0.6,2.1-0.4,2.8,0.5
				l18.9,26.3c0.6,0.9,0.4,2.1-0.5,2.8C268.4,172.7,268,172.9,267.5,172.9z"/>
		</g>
		<g>
			<path class="st5" d="M95,131.3c-6.1,0-11.9-3.3-14.9-9c-0.5-1-0.1-2.2,0.8-2.7c1-0.5,2.2-0.1,2.7,0.8c3.3,6.2,11,8.7,17.3,5.4
				c3-1.6,5.3-4.3,6.3-7.5c1-3.3,0.7-6.7-0.9-9.7c-2.3-4.3-6.6-6.9-11.5-6.9c-1.1,0-2-0.9-2-2c0-1.1,0.9-2,2-2
				c6.4-0.1,12.2,3.4,15.1,9c2.1,4,2.5,8.5,1.1,12.8s-4.3,7.8-8.2,9.9C100.3,130.7,97.7,131.3,95,131.3z"/>
		</g>
		<g>
			<path class="st5" d="M80.1,125.6c-0.3,0-0.7-0.1-1-0.3c-1-0.6-1.3-1.8-0.7-2.7l25.1-43.3c0.6-1,1.8-1.3,2.7-0.7
				c1,0.6,1.3,1.8,0.7,2.7l-25.1,43.3C81.5,125.2,80.8,125.6,80.1,125.6z"/>
		</g>
	</g>
</g>
</svg>
