<svg width="50" height="50" viewBox="0 0 50 50" fill="none" xmlns="http://www.w3.org/2000/svg">
<path d="M49.5445 7.0867L42.9154 0.457766C42.3049 -0.152589 41.3158 -0.152589 40.7054 0.457766L38.4954 2.66676C37.885 3.27751 37.8849 4.26638 38.4953 4.87673L31.0117 12.3602C26.4578 10.4314 21.0114 11.3104 17.3003 15.0213L1.83111 30.4901C-0.61037 32.9316 -0.61037 36.8876 1.83111 39.3291L10.6702 48.1689C13.1117 50.6104 17.0679 50.6104 19.5094 48.1689L34.9786 32.7001C38.6897 28.9892 39.5686 23.5438 37.6398 18.9891L45.1235 11.5057C45.7338 12.116 46.7348 12.116 47.3452 11.5057L49.5552 9.2957C50.15 8.68632 50.15 7.69706 49.5445 7.0867ZM17.5123 41.3281L8.67318 32.4892L20.5876 20.5751L29.4267 29.4149L17.5123 41.3281Z" fill="#F99E77"/>
</svg>
