<svg width="317" height="515" viewBox="0 0 317 515" fill="none" xmlns="http://www.w3.org/2000/svg">
<rect x="1.5" y="1.5" width="314" height="512" rx="26.5" fill="white" stroke="#9DD0E7" stroke-width="3"/>
<line x1="1" y1="166.5" x2="317" y2="166.5" stroke="#9DD0E7"/>
<line x1="1" y1="271.5" x2="317" y2="271.5" stroke="#9DD0E7"/>
<line y1="406.5" x2="316" y2="406.5" stroke="#9DD0E7"/>
<g clip-path="url(#clip0_138_2)">
<path d="M300.664 8.65389L251.593 115.508C250.682 117.478 243.723 117.481 242.81 115.51L205.371 32.3807L179.754 71.7996C178.422 73.5418 172.478 73.5418 171.144 71.7996L152.063 41.3385L126.003 86.3332C124.952 88.2466 118.357 88.2466 117.309 86.3332L91.972 43.5322L72.0726 71.8682C70.7413 73.4961 64.9873 73.513 63.5859 71.8852L14.7606 9.42399C11.3272 4.7417 19.9473 0 31.9262 0H283.051C294.273 0 302.794 4.17041 300.664 8.65389Z" fill="#9DD0E7"/>
</g>
<defs>
<clipPath id="clip0_138_2">
<rect width="287" height="117" fill="white" transform="translate(14)"/>
</clipPath>
</defs>
</svg>
