<svg width="59" height="44" viewBox="0 0 59 44" fill="none" xmlns="http://www.w3.org/2000/svg">
<path d="M14.2735 16.2287L34.2855 36.3192L5.14807 43.7189C4.39097 43.9219 3.5919 43.9401 2.78724 43.7209C2.12594 43.6277 1.48765 43.2901 1.01833 42.819C0.478611 42.2771 0.264291 41.7588 0.198139 41.1216C0.0798065 40.4143 0.30786 39.8228 0.67386 39.2271L14.2735 16.2287ZM49.9023 29.8281C50.1064 30.4611 50.157 31.1361 50.041 31.8223C49.9276 32.4932 49.6581 33.1678 49.2427 33.7852C48.8272 34.4026 48.297 34.8334 47.6186 35.4365C46.9739 35.895 46.2249 36.2667 45.434 36.5072C44.5727 36.677 43.8182 36.8647 42.9983 36.8442C42.1965 36.824 41.4076 36.6741 40.7043 36.3961C40.0011 36.1181 39.3731 35.7195 38.8803 35.2248L16.3356 12.5916C15.3407 11.5927 14.9167 10.2575 15.1502 8.88678C15.3837 7.51602 16.3526 6.15224 17.582 5.28194C18.9154 4.33769 20.5703 3.84098 22.2118 3.88372C23.8532 3.92645 25.3282 4.51551 26.3232 5.51438L26.4006 5.59212C26.921 5.13355 27.4663 4.7001 28.0471 4.28439C32.0092 1.46676 37 -0.04873 41.9176 0.0762444C46.8352 0.201219 51.2736 1.95493 54.1912 4.88401C57.2418 7.94658 58.5292 11.9411 57.8355 16.0566C57.1418 20.1721 54.5257 24.0717 50.5636 26.8893C49.9813 27.3035 49.3859 27.6867 48.7592 28.0384L48.8374 28.117C49.3302 28.6117 49.6982 29.1952 49.9023 29.8281Z" fill="#F99E77"/>
</svg>
