<svg width="50" height="49" viewBox="0 0 50 49" fill="none" xmlns="http://www.w3.org/2000/svg">
<path d="M37.6467 12.25C34.0613 12.25 28.681 13.7841 25.0978 15.3154C21.5113 13.7841 16.2352 12.251 12.6497 12.25C3.5854 12.25 0.0463141 20.1455 0.000364903 27.5625C-0.059164 37.1299 7.17005 49 17.8265 49C21.412 49 23.2047 47.4688 24.9974 47.4688C26.7901 47.4688 28.5828 49 32.1682 49C42.9244 49 50.14 37.2477 49.9944 27.5625C50.162 20.2508 46.6103 12.25 37.6467 12.25ZM35.854 3.0625V0H32.2686C27.3163 0 23.3051 3.42809 23.3051 7.65625V10.7188H26.8905C31.8429 10.7188 35.854 7.29066 35.854 3.0625Z" fill="#F99E77"/>
</svg>
