<svg width="107" height="50" viewBox="0 0 107 50" fill="none" xmlns="http://www.w3.org/2000/svg">
<path d="M61.784 18.656C61.784 19.4453 62.2 19.92 63.032 20.08C63.192 20.112 63.3733 20.128 63.576 20.128C64.9093 20.128 65.9653 19.696 66.744 18.832C67.5227 17.9787 67.912 16.9013 67.912 15.6C67.912 15.088 67.816 14.6187 67.624 14.192C67.4427 13.7547 67.2133 13.3973 66.936 13.12C66.6587 12.832 66.3547 12.544 66.024 12.256C65.704 11.968 65.4053 11.7067 65.128 11.472C64.8507 11.2373 64.616 10.9547 64.424 10.624C64.2427 10.2933 64.152 9.94133 64.152 9.568C64.152 8.58667 64.5893 7.68533 65.464 6.864C66.3493 6.032 67.2987 5.616 68.312 5.616C68.5147 5.616 68.664 5.69067 68.76 5.84C68.856 5.98933 68.904 6.13867 68.904 6.288L68.888 6.496C68.8133 6.45333 68.6267 6.432 68.328 6.432C67.6453 6.432 66.984 6.752 66.344 7.392C65.704 8.032 65.384 8.77333 65.384 9.616C65.384 9.95733 65.4747 10.2933 65.656 10.624C65.848 10.944 66.0827 11.2267 66.36 11.472C66.6373 11.7173 66.936 11.9947 67.256 12.304C67.576 12.6027 67.8747 12.9013 68.152 13.2C68.4293 13.488 68.6587 13.8453 68.84 14.272C69.032 14.688 69.128 15.1307 69.128 15.6C69.128 16.8907 68.5947 18.0373 67.528 19.04C66.4613 20.0427 65.144 20.544 63.576 20.544C62.2533 20.544 61.416 20.1173 61.064 19.264C60.7867 18.56 60.8933 17.7813 61.384 16.928C61.8747 16.0747 62.584 15.4987 63.512 15.2C63.8533 15.0933 64.1573 15.04 64.424 15.04C64.6907 15.04 64.872 15.088 64.968 15.184C65.0747 15.2693 65.144 15.408 65.176 15.6C64.1733 15.6 63.3147 16.0053 62.6 16.816C62.056 17.424 61.784 18.0373 61.784 18.656ZM69.208 9.808C69.208 9.86133 69.1547 9.888 69.048 9.888C68.952 9.888 68.8613 9.86667 68.776 9.824C68.6907 9.78133 68.648 9.72267 68.648 9.648C68.648 8.56 68.7707 7.68533 69.016 7.024C69.2613 6.36267 69.5867 6.032 69.992 6.032C70.0987 6.032 70.1893 6.06933 70.264 6.144C70.3387 6.21867 70.376 6.31467 70.376 6.432C69.896 6.912 69.5493 7.632 69.336 8.592C69.2507 8.976 69.208 9.38133 69.208 9.808ZM75.9684 16.048C75.9684 14.736 76.2084 13.0773 76.6884 11.072C76.7204 10.9653 76.6884 10.9173 76.5924 10.928C76.5178 10.9387 76.4484 10.9707 76.3844 11.024C75.9151 11.4187 75.3978 12.1493 74.8324 13.216C74.2671 14.2827 73.8138 15.2587 73.4724 16.144C73.1311 17.0187 72.9604 17.5307 72.9604 17.68C72.9604 17.808 72.8804 17.872 72.7204 17.872C72.4004 17.872 72.2404 17.4507 72.2404 16.608C72.2404 15.008 72.4004 13.568 72.7204 12.288C73.0404 10.9973 73.4298 10.352 73.8884 10.352C74.0911 10.352 74.1924 10.464 74.1924 10.688C73.7018 12.2347 73.3498 13.824 73.1364 15.456H73.2804C74.6884 11.936 75.9844 10.176 77.1684 10.176C77.6804 10.176 77.9364 10.4267 77.9364 10.928C77.4351 12.4213 77.0724 13.8933 76.8484 15.344H76.9764C77.3284 14.5973 77.6804 13.92 78.0324 13.312C78.3951 12.6933 78.8164 12.1227 79.2964 11.6C79.7764 11.0667 80.2084 10.8 80.5924 10.8C81.1044 10.8 81.3604 11.0453 81.3604 11.536C80.8058 13.3813 80.5284 15.1787 80.5284 16.928C80.5284 18.0587 80.6991 18.624 81.0404 18.624C81.1578 18.624 81.2751 18.5707 81.3924 18.464C81.5098 18.368 81.5898 18.32 81.6324 18.32C81.7818 18.32 81.7764 18.4373 81.6164 18.672C81.5738 18.7467 81.4778 18.848 81.3284 18.976C81.1898 19.104 81.0511 19.168 80.9124 19.168C80.4964 19.168 80.1711 18.8747 79.9364 18.288C79.7124 17.712 79.6004 16.96 79.6004 16.032C79.6004 14.4 79.7711 12.9653 80.1124 11.728C80.1338 11.6533 80.1071 11.616 80.0324 11.616C79.9684 11.6267 79.9044 11.6587 79.8404 11.712C79.2324 12.2347 78.5551 13.2053 77.8084 14.624C77.0618 16.032 76.6884 16.864 76.6884 17.12C76.6884 17.248 76.6031 17.312 76.4324 17.312C76.1231 17.312 75.9684 16.8907 75.9684 16.048ZM85.437 18C84.5623 18 84.125 17.312 84.125 15.936C84.125 15.1147 84.3276 14.2133 84.733 13.232C85.2983 11.856 86.0396 10.9173 86.957 10.416C87.3516 10.2027 87.7196 10.096 88.061 10.096C88.4023 10.096 88.669 10.1707 88.861 10.32C89.0636 10.4693 89.1916 10.6187 89.245 10.768L89.341 10.976C89.309 11.1573 89.2183 11.248 89.069 11.248C88.8983 11.248 88.797 11.2107 88.765 11.136C88.7436 11.0507 88.717 10.9813 88.685 10.928C88.653 10.864 88.5783 10.784 88.461 10.688C88.3436 10.5813 88.2103 10.528 88.061 10.528C87.3676 10.528 86.7383 11.152 86.173 12.4C85.533 13.84 85.213 15.1947 85.213 16.464C85.213 17.104 85.341 17.424 85.597 17.424C85.7996 17.424 86.0823 17.2 86.445 16.752C86.8183 16.2933 87.2076 15.7227 87.613 15.04C88.317 13.8667 88.8876 12.848 89.325 11.984C89.6876 11.216 90.061 10.832 90.445 10.832C90.6476 10.832 90.749 10.9547 90.749 11.2C90.653 11.4027 90.5303 11.6907 90.381 12.064C90.2316 12.4373 90.0343 13.1787 89.789 14.288C89.5436 15.3973 89.421 16.5013 89.421 17.6C89.421 18.6987 89.5863 19.248 89.917 19.248C90.045 19.248 90.1623 19.1893 90.269 19.072C90.3756 18.9653 90.4716 18.8 90.557 18.576C90.589 18.4587 90.6636 18.4 90.781 18.4C90.8236 18.4 90.8556 18.416 90.877 18.448C90.8983 18.48 90.8983 18.5333 90.877 18.608C90.8556 18.6827 90.8183 18.784 90.765 18.912C90.7116 19.0507 90.5943 19.232 90.413 19.456C90.2423 19.68 90.061 19.792 89.869 19.792C89.421 19.792 89.0743 19.4987 88.829 18.912C88.5943 18.3253 88.477 17.632 88.477 16.832C88.477 16.032 88.5356 15.264 88.653 14.528H88.493C87.1383 16.8427 86.1196 18 85.437 18ZM98.2372 13.408C97.8319 13.408 97.6292 12.9653 97.6292 12.08C97.6292 11.5787 97.7252 11.1093 97.9172 10.672C97.1919 11.3013 96.3812 12.4747 95.4852 14.192C94.5892 15.8987 94.1412 17.0133 94.1412 17.536C94.1412 17.664 94.0559 17.728 93.8852 17.728C93.5759 17.728 93.4212 17.3067 93.4212 16.464C93.4212 14.8747 93.5812 13.4347 93.9012 12.144C94.2212 10.8533 94.6106 10.208 95.0692 10.208C95.2719 10.208 95.3732 10.3253 95.3732 10.56C94.8826 12.1173 94.5306 13.712 94.3172 15.344H94.4292C95.2932 13.3493 96.2479 11.792 97.2932 10.672C97.8906 10.032 98.4346 9.712 98.9252 9.712C99.0319 9.712 99.1172 9.744 99.1812 9.808C99.2559 9.872 99.2932 9.952 99.2932 10.048C99.2186 10.1227 99.1279 10.2347 99.0212 10.384C98.9146 10.5333 98.7706 10.8907 98.5892 11.456C98.4079 12.0107 98.3172 12.6187 98.3172 13.28C98.3172 13.3653 98.2906 13.408 98.2372 13.408ZM101.626 11.072C101.21 11.072 101.002 10.9013 101.002 10.56C101.002 10.432 101.055 10.352 101.162 10.32C101.173 10.3093 101.189 10.304 101.21 10.304C101.274 10.3787 101.391 10.416 101.562 10.416C101.743 10.416 102.026 10.4053 102.41 10.384C102.911 9.02933 103.391 8.352 103.85 8.352C104.031 8.352 104.122 8.45333 104.122 8.656C103.951 9.08267 103.759 9.632 103.546 10.304C104.602 10.1867 105.29 10.128 105.61 10.128C105.695 10.128 105.738 10.1707 105.738 10.256C105.738 10.4267 105.626 10.512 105.402 10.512C105.285 10.512 104.607 10.624 103.37 10.848C102.527 13.5147 102.106 15.6747 102.106 17.328C102.106 18.9813 102.437 19.808 103.098 19.808C103.365 19.808 103.615 19.6907 103.85 19.456C104.085 19.232 104.25 19.008 104.346 18.784C104.389 18.6667 104.479 18.6347 104.618 18.688C104.682 18.7093 104.703 18.7413 104.682 18.784C104.618 18.9227 104.538 19.0827 104.442 19.264C104.346 19.4453 104.159 19.6693 103.882 19.936C103.605 20.2027 103.322 20.336 103.034 20.336C101.765 20.336 101.13 19.232 101.13 17.024C101.13 15.1573 101.477 13.1627 102.17 11.04C102.021 11.0613 101.839 11.072 101.626 11.072ZM73.656 40.632C73.656 42.0827 73.9867 42.808 74.648 42.808C75.0747 42.808 75.432 42.4933 75.72 41.864C75.784 41.7573 75.88 41.7253 76.008 41.768C76.0613 41.7893 76.072 41.832 76.04 41.896C76.0187 41.9707 75.9813 42.056 75.928 42.152C75.8747 42.2587 75.7787 42.4187 75.64 42.632C75.32 43.1013 74.952 43.336 74.536 43.336C73.2453 43.336 72.6 42.312 72.6 40.264C72.6 37.96 73.416 34.36 75.048 29.464C75.0907 29.336 75.064 29.272 74.968 29.272C74.8827 29.272 74.7867 29.32 74.68 29.416C74.1147 29.9493 73.5333 30.664 72.936 31.56C72.3493 32.456 71.832 33.3627 71.384 34.28C70.5947 35.8693 70.0133 37.192 69.64 38.248C69.1387 39.7307 68.696 40.472 68.312 40.472C68.088 40.472 67.976 40.36 67.976 40.136C67.976 40.1253 67.9813 40.1147 67.992 40.104C69.3253 35.272 69.992 32.2373 69.992 31C69.992 30.4453 69.8693 30.168 69.624 30.168C69.1333 30.168 68.36 31.0853 67.304 32.92C66.248 34.744 65.4533 36.5733 64.92 38.408C64.28 40.616 63.7147 41.72 63.224 41.72C63 41.72 62.888 41.6027 62.888 41.368C62.8987 41.336 62.9307 41.2453 62.984 41.096C63.0373 40.9467 63.1067 40.728 63.192 40.44C63.2773 40.1413 63.4107 39.6773 63.592 39.048C63.784 38.408 63.944 37.7893 64.072 37.192C64.4987 35.208 64.712 33.7787 64.712 32.904C64.712 32.4347 64.68 31.9707 64.616 31.512C64.552 31.0427 64.392 30.664 64.136 30.376C63.88 30.088 63.544 29.944 63.128 29.944C62.4773 29.944 62.0187 30.216 61.752 30.76C61.6667 30.952 61.624 31.1173 61.624 31.256C61.624 31.384 61.6613 31.448 61.736 31.448C61.704 31.5973 61.576 31.672 61.352 31.672C61.128 31.672 61.016 31.528 61.016 31.24C61.016 30.8027 61.2347 30.4133 61.672 30.072C62.12 29.7307 62.6267 29.56 63.192 29.56C63.7573 29.56 64.2053 29.704 64.536 29.992C64.8773 30.2693 65.1227 30.6427 65.272 31.112C65.5173 31.8907 65.64 32.7333 65.64 33.64C65.64 33.9813 65.6187 34.3333 65.576 34.696H65.736C67.432 31.2613 68.856 29.544 70.008 29.544C70.6693 29.544 71 30.1093 71 31.24C71 31.784 70.8773 32.7387 70.632 34.104H70.776C72.728 30.424 74.328 28.584 75.576 28.584C76.056 28.584 76.296 28.8507 76.296 29.384C75.9653 30.2053 75.5973 31.3253 75.192 32.744C74.168 36.2533 73.656 38.8827 73.656 40.632ZM82.0803 33.24C82.8909 33.24 83.2963 33.7147 83.2963 34.664C83.2963 35.208 83.1149 35.7787 82.7523 36.376C82.1336 37.368 81.3123 37.864 80.2883 37.864C80.1283 37.864 79.9949 37.8373 79.8883 37.784C79.7816 37.7307 79.7016 37.6507 79.6483 37.544C80.4056 37.544 81.0989 37.1067 81.7283 36.232C82.2403 35.528 82.4963 34.8827 82.4963 34.296C82.4963 33.8587 82.3203 33.64 81.9683 33.64C81.2643 33.64 80.6083 34.1893 80.0003 35.288C79.3496 36.4827 79.0243 37.7093 79.0243 38.968C79.0243 40.0347 79.3283 40.6747 79.9363 40.888C80.0536 40.9307 80.2029 40.952 80.3843 40.952C80.5656 40.952 80.7576 40.9093 80.9603 40.824C81.1629 40.728 81.3336 40.616 81.4723 40.488C81.7496 40.232 81.9789 39.9493 82.1603 39.64C82.2029 39.5547 82.2829 39.512 82.4003 39.512C82.5923 39.512 82.6829 39.544 82.6723 39.608C82.6403 39.7253 82.5176 39.9227 82.3043 40.2C82.1016 40.4773 81.9096 40.7013 81.7283 40.872C81.5576 41.032 81.3283 41.176 81.0403 41.304C80.7629 41.4427 80.4803 41.512 80.1923 41.512C79.0616 41.512 78.3416 40.9787 78.0323 39.912C77.9363 39.5493 77.8883 39.176 77.8883 38.792C77.8883 38.0773 78.0536 37.2987 78.3843 36.456C78.9069 35.176 79.6269 34.2533 80.5443 33.688C81.0456 33.3893 81.5576 33.24 82.0803 33.24ZM86.8627 41C85.9881 41 85.5507 40.312 85.5507 38.936C85.5507 38.1147 85.7534 37.2133 86.1587 36.232C86.7241 34.856 87.4654 33.9173 88.3827 33.416C88.7774 33.2027 89.1454 33.096 89.4867 33.096C89.8281 33.096 90.0947 33.1707 90.2867 33.32C90.4894 33.4693 90.6174 33.6187 90.6707 33.768L90.7667 33.976C90.7347 34.1573 90.6441 34.248 90.4947 34.248C90.3241 34.248 90.2227 34.2107 90.1907 34.136C90.1694 34.0507 90.1427 33.9813 90.1107 33.928C90.0787 33.864 90.0041 33.784 89.8867 33.688C89.7694 33.5813 89.6361 33.528 89.4867 33.528C88.7934 33.528 88.1641 34.152 87.5987 35.4C86.9587 36.84 86.6387 38.1947 86.6387 39.464C86.6387 40.104 86.7667 40.424 87.0227 40.424C87.2254 40.424 87.5081 40.2 87.8707 39.752C88.2441 39.2933 88.6334 38.7227 89.0387 38.04C89.7427 36.8667 90.3134 35.848 90.7507 34.984C91.1134 34.216 91.4867 33.832 91.8707 33.832C92.0734 33.832 92.1747 33.9547 92.1747 34.2C92.0787 34.4027 91.9561 34.6907 91.8067 35.064C91.6574 35.4373 91.4601 36.1787 91.2147 37.288C90.9694 38.3973 90.8467 39.5013 90.8467 40.6C90.8467 41.6987 91.0121 42.248 91.3427 42.248C91.4707 42.248 91.5881 42.1893 91.6947 42.072C91.8014 41.9653 91.8974 41.8 91.9827 41.576C92.0147 41.4587 92.0894 41.4 92.2067 41.4C92.2494 41.4 92.2814 41.416 92.3027 41.448C92.3241 41.48 92.3241 41.5333 92.3027 41.608C92.2814 41.6827 92.2441 41.784 92.1907 41.912C92.1374 42.0507 92.0201 42.232 91.8387 42.456C91.6681 42.68 91.4867 42.792 91.2947 42.792C90.8467 42.792 90.5001 42.4987 90.2547 41.912C90.0201 41.3253 89.9027 40.632 89.9027 39.832C89.9027 39.032 89.9614 38.264 90.0787 37.528H89.9187C88.5641 39.8427 87.5454 41 86.8627 41ZM96.927 43.336C96.3083 43.336 95.8497 43.0107 95.551 42.36C95.263 41.7093 95.119 40.7333 95.119 39.432C95.119 38.1307 95.311 36.5893 95.695 34.808C96.079 33.0267 96.527 31.5493 97.039 30.376C97.5617 29.2027 98.015 28.616 98.399 28.616C98.5803 28.616 98.671 28.7227 98.671 28.936C98.447 29.448 98.1643 30.2213 97.823 31.256C97.4817 32.28 97.1937 33.2293 96.959 34.104C96.735 34.9787 96.527 36.0027 96.335 37.176C96.1537 38.3493 96.063 39.3573 96.063 40.2C96.063 41.032 96.143 41.672 96.303 42.12C96.4737 42.5787 96.703 42.808 96.991 42.808C97.2363 42.808 97.471 42.6907 97.695 42.456C97.919 42.232 98.079 42.008 98.175 41.784C98.2283 41.6667 98.3243 41.6347 98.463 41.688C98.5163 41.7093 98.527 41.752 98.495 41.816C98.4737 41.8907 98.431 41.9813 98.367 42.088C98.3137 42.1947 98.2123 42.36 98.063 42.584C97.743 43.0853 97.3643 43.336 96.927 43.336Z" fill="#F78250"/>
<path d="M17.55 27.7916L23.6816 21.8958L8.47164 7.29164C5.09165 10.5416 5.09165 15.8125 8.47164 19.0833L17.55 27.7916ZM32.24 24.0208C35.555 25.5 40.2133 24.4583 43.6583 21.1458C47.7966 17.1666 48.5983 11.4583 45.4133 8.39581C42.25 5.35414 36.3133 6.10414 32.1533 10.0833C28.7083 13.3958 27.625 17.875 29.1633 21.0625L8.01664 41.3958L11.0716 44.3333L26 30.0208L40.9066 44.3541L43.9616 41.4166L29.055 27.0833L32.24 24.0208Z" fill="#257394"/>
<g clip-path="url(#clip0_3_390)">
<path d="M24.6316 12.1733L23.7718 11.4206C20.7179 8.75791 18.7018 7.00177 18.7018 4.8465C18.7018 3.09037 20.1368 1.71054 21.9632 1.71054C22.9949 1.71054 23.9852 2.17238 24.6316 2.90221C25.2779 2.17238 26.2682 1.71054 27.3 1.71054C29.1264 1.71054 30.5614 3.09037 30.5614 4.8465C30.5614 7.00177 28.5453 8.75791 25.4914 11.4263L24.6316 12.1733Z" fill="#F78250"/>
</g>
<defs>
<clipPath id="clip0_3_390">
<rect width="14.2316" height="13.6842" fill="white" transform="translate(17.5158)"/>
</clipPath>
</defs>
</svg>
