<svg width="50" height="50" viewBox="0 0 50 50" fill="none" xmlns="http://www.w3.org/2000/svg">
<path d="M50 16.5523C50 16.7244 49.9978 16.8835 49.9925 17.0557C48.3411 16.1655 46.5247 15.7143 44.7229 15.7143C36.6515 15.7143 34.4201 22.9449 34.4201 25.9894C34.4201 28.6254 35.3891 31.2956 37.3137 33.4228C35.4074 34.069 33.4084 34.3973 31.3937 34.3973L22.8799 34.3977L18.916 38.3449C18.3199 38.9399 18.0448 39.7107 18.0448 40.5062C18.0448 41.8691 18.7523 42.1733 18.7523 44.1162C18.7595 47.4069 16.0739 50 12.861 50C11.3346 50 9.82285 49.4097 8.68905 48.2647C7.56111 47.1475 7.04646 45.6999 7.04646 44.2424C7.04646 43.7601 7.10261 43.277 7.21199 42.8045C6.73913 42.9127 6.25563 42.9684 5.77447 42.9684C1.65822 42.9684 0 39.3965 0 37.1679C0 33.9089 2.65139 31.2856 5.89752 31.2856C7.75008 31.2856 8.14071 31.9893 9.50693 31.9893C10.3037 31.9893 11.0734 31.7153 11.6691 31.1203L15.631 27.175L15.6344 18.7165C15.6344 12.5651 18.3483 8.2854 21.8034 4.83437C25.0388 1.61146 29.2635 0 33.493 0C37.7225 0 41.9687 1.61146 45.2021 4.83437C48.4277 8.12942 50 12.3409 50 16.5523Z" fill="#F99E77"/>
</svg>
