<svg width="50" height="50" viewBox="0 0 50 50" fill="none" xmlns="http://www.w3.org/2000/svg">
<path d="M9.80438 10.9665L0.0479825 48.0137C-0.0863159 48.563 0.0638248 49.1464 0.4667 49.537C0.869791 49.9398 1.45611 50.0979 1.99331 49.9392L39.0206 39.6765C38.6077 22.5962 27.0043 11.1423 9.80438 10.9665ZM12.4122 40.6218C10.6912 40.6218 9.28672 39.2177 9.28672 37.585C9.28672 35.8645 10.6922 34.4603 12.4132 34.4603C14.1351 34.4603 15.5387 35.8645 15.5387 37.4971C15.6256 39.2157 14.2191 40.6218 12.4122 40.6218ZM17.1004 26.4728C15.3785 26.4728 13.975 25.0687 13.975 23.3481C13.975 21.6276 15.3795 20.3113 17.1004 20.3113C18.8214 20.3113 20.2259 21.7155 20.2259 23.3481C20.3138 25.1546 18.9074 26.4728 17.1004 26.4728ZM26.5648 35.8469C24.8438 35.8469 23.4393 34.4427 23.4393 32.8101C23.4393 31.0896 24.8438 29.6854 26.5648 29.6854C28.2868 29.6854 29.6903 31.0896 29.6903 32.8101C29.6903 34.5287 28.2838 35.8469 26.5648 35.8469ZM15.5182 0.0144908C13.9427 -0.131979 12.4659 0.844586 12.0625 2.36973L10.6151 7.86328C28.9382 8.40034 41.3328 20.616 42.1141 38.7294L47.6697 37.1915C49.208 36.7643 50.1603 35.2757 49.9777 33.6889C47.9451 16.1223 33.2846 1.69884 15.5182 0.0144908Z" fill="#F99E77"/>
</svg>
