<svg width="50" height="49" viewBox="0 0 50 49" fill="none" xmlns="http://www.w3.org/2000/svg">
<path d="M39.2857 10.6326C41.7511 10.6326 43.75 8.92144 43.75 6.80736C43.75 4.69328 39.2857 0 39.2857 0C39.2857 0 34.8214 4.77654 34.8214 6.89062C34.8214 9.00471 36.8192 10.6326 39.2857 10.6326ZM25 10.6326C27.4654 10.6326 29.4643 8.92144 29.4643 6.80736C29.4643 4.69328 25 0 25 0C25 0 20.5357 4.77654 20.5357 6.89062C20.5357 9.00471 22.5335 10.6326 25 10.6326ZM42.7567 21.3514L42.8571 15.3125C42.8571 14.4669 42.0576 13.7812 41.0714 13.7812H37.5C36.5179 13.7812 35.7143 14.4703 35.7143 15.3125V21.4375H28.5714V15.3125C28.5714 14.4669 27.7719 13.7812 26.7857 13.7812H23.2143C22.2321 13.7812 21.4286 14.4703 21.4286 15.3125V21.4375H14.2857V15.3125C14.2857 14.4669 13.4862 13.7812 12.5 13.7812H8.92857C7.94196 13.7812 7.14286 14.4703 7.14286 15.3125V21.4346C3.19754 21.4346 0 24.1765 0 27.4735V34.0483C1.09531 34.6323 2.38728 35.1326 3.57143 35.1326C5.875 35.1326 8.59933 33.2444 9.45312 32.517C10.1507 31.9219 11.2768 31.9219 11.9743 32.517C12.7344 33.3334 15.558 35.1326 17.8571 35.1326C20.1562 35.1326 22.885 33.2444 23.7388 32.517C24.4364 31.9219 25.5625 31.9219 26.26 32.517C27.0201 33.3334 29.8438 35.1326 32.1429 35.1326C34.442 35.1326 37.1708 33.2444 38.0246 32.517C38.7221 31.9219 39.8482 31.9219 40.5458 32.517C41.3058 33.3334 44.1295 35.1326 46.4286 35.1326C47.6127 35.1326 48.9051 34.6324 50 34.0483V27.4764C50 24.1746 46.7969 21.3514 42.7567 21.3514ZM39.2857 35.726C37.7511 36.7739 35.0413 38.2774 32.1429 38.2774C29.2444 38.2774 26.5346 36.7749 25 35.726C23.4654 36.7739 20.7556 38.2774 17.8571 38.2774C14.9587 38.2774 12.2489 36.7749 10.7143 35.726C9.17969 36.7739 6.46987 38.2774 3.57143 38.2774C2.31362 38.2774 1.10603 37.9787 0 37.5714V45.934C0 47.6314 1.59933 49 3.57143 49H46.4286C48.4007 49 50 47.6286 50 45.9375V37.575C48.894 37.9823 47.6864 38.281 46.4286 38.281C43.5268 38.1951 40.8259 36.7787 39.2857 35.726ZM10.7143 10.6326C13.1797 10.6326 15.1786 8.92144 15.1786 6.80736C15.1786 4.69328 10.7143 0 10.7143 0C10.7143 0 6.25 4.77654 6.25 6.89062C6.25 9.00471 8.24888 10.6326 10.7143 10.6326Z" fill="#F99E77"/>
</svg>
