<svg width="50" height="49" viewBox="0 0 50 49" fill="none" xmlns="http://www.w3.org/2000/svg">
<path d="M29.1212 14.9858C23.9748 12.5264 17.9397 13.981 14.3655 18.1245L19.7629 23.4174C20.3732 24.0155 20.3732 24.9801 19.7629 25.5782C19.4575 25.8653 19.0533 26.0189 18.6506 26.0189C18.2479 26.0189 17.8627 25.8653 17.5578 25.5782L12.7249 20.7657L0.215172 45.9142C-0.065588 46.4884 -0.077795 47.1822 0.215172 47.7927C0.752278 48.8568 2.07063 49.2999 3.14484 48.786L16.1916 42.542L11.3967 37.828C10.774 37.2419 10.774 36.2606 11.3967 35.6749C12.0071 35.0768 12.9954 35.0768 13.594 35.6749L19.1584 41.1276L29.1193 36.3534C31.463 35.2405 33.465 33.362 34.6983 30.8864C37.6466 24.9858 35.1466 17.8757 29.1212 14.9858ZM38.1055 11.6556C40.0098 7.75126 39.0333 3.14644 35.0685 0C30.1613 3.99525 29.9406 10.2872 34.2994 14.536L35.0807 15.3016C39.502 19.5695 45.9375 19.359 50 14.5456C46.7871 10.7465 42.002 9.78955 38.1055 11.6556Z" fill="#F99E77"/>
</svg>
